<?xml version="1.0" standalone="no"?>
<!DOCTYPE svg PUBLIC "-//W3C//DTD SVG 20010904//EN"
 "http://www.w3.org/TR/2001/REC-SVG-20010904/DTD/svg10.dtd">
<svg version="1.0" xmlns="http://www.w3.org/2000/svg"
 width="517.000000pt" height="519.000000pt" viewBox="0 0 517.000000 519.000000"
 preserveAspectRatio="xMidYMid meet">
<metadata>
Created by potrace 1.15, written by Peter Selinger 2001-2017
</metadata>
<g transform="translate(0.000000,519.000000) scale(0.100000,-0.100000)"
fill="#FF1F4C" stroke="none">
<path d="M0 2595 l0 -2595 2585 0 2585 0 0 2595 0 2595 -2585 0 -2585 0 0
-2595z m2152 2100 c79 -57 233 -170 343 -251 110 -81 201 -147 202 -148 1 -1
-7 -56 -18 -122 -18 -104 -44 -226 -155 -737 -15 -65 -24 -120 -21 -123 5 -5
116 92 333 291 181 166 318 283 350 300 23 12 69 15 219 14 105 0 198 -4 209
-8 20 -8 -19 -46 -454 -437 -526 -474 -509 -457 -497 -479 14 -29 184 -304
295 -480 348 -550 477 -752 489 -766 7 -8 13 -19 13 -23 0 -3 -84 -5 -187 -4
l-186 3 -90 145 c-49 80 -175 280 -280 445 -185 291 -262 415 -304 483 l-20
33 -21 -88 c-19 -81 -136 -607 -197 -885 -14 -65 -25 -132 -25 -149 0 -64 59
-126 168 -177 l57 -27 630 4 c347 2 754 7 905 11 299 8 336 15 423 70 71 45
85 84 96 267 10 168 21 201 75 227 43 20 115 21 144 0 12 -8 29 -29 38 -45 38
-75 34 -408 -7 -532 -42 -127 -106 -197 -244 -263 l-69 -34 -1101 0 -1101 0
-73 35 c-87 42 -185 135 -225 213 -48 95 -49 126 -11 364 19 117 45 260 59
318 13 58 86 384 161 725 75 341 151 688 170 770 18 83 50 224 70 315 20 91
38 171 41 179 7 21 -41 60 -374 304 -171 125 -320 239 -332 254 -11 15 -20 36
-18 47 3 18 18 24 118 42 63 12 147 22 187 23 l72 1 143 -105z m-1304 -356
c35 -17 49 -32 65 -68 19 -43 19 -58 13 -291 -4 -135 -11 -319 -16 -410 -5
-91 -12 -268 -16 -394 -8 -261 -15 -247 82 -173 33 25 88 57 124 73 59 26 76
28 175 28 133 0 198 -21 275 -91 96 -86 119 -159 130 -408 13 -306 -26 -1178
-54 -1234 -58 -111 -228 -118 -288 -11 -19 33 -19 51 -14 405 3 204 9 492 12
640 5 188 3 283 -5 311 -31 115 -145 162 -274 114 -64 -24 -98 -57 -131 -130
-52 -113 -64 -239 -86 -850 -12 -327 -20 -409 -45 -447 -25 -37 -75 -63 -123
-63 -50 0 -75 11 -120 53 l-32 31 0 130 c0 140 10 422 35 971 8 187 24 588 35
890 31 853 34 877 115 922 50 28 87 29 143 2z m1825 -3189 c219 -32 362 -226
335 -457 -9 -84 -37 -143 -97 -206 -88 -93 -237 -148 -356 -131 -27 3 -81 22
-118 41 -144 72 -208 166 -215 313 -12 242 95 399 298 436 83 15 74 15 153 4z
m1331 -25 c72 -36 169 -137 204 -212 24 -51 27 -70 27 -153 -1 -109 -12 -153
-57 -230 -93 -156 -353 -224 -525 -138 -58 29 -144 122 -180 195 -25 53 -28
68 -28 163 0 97 3 110 32 172 38 81 111 161 175 194 102 52 260 56 352 9z
m-1847 -157 c-3 -13 -9 -56 -13 -97 l-7 -73 -818 3 c-620 3 -821 7 -830 16
-10 10 -9 14 2 18 8 3 208 23 444 45 584 54 956 89 1040 99 39 5 96 9 129 10
56 1 58 0 53 -21z m9 -310 c9 -18 33 -56 54 -84 l39 -51 -61 -7 c-127 -13
-1424 4 -1449 20 -24 15 22 23 207 39 104 8 203 18 219 20 17 3 131 14 255 25
355 31 664 60 675 64 28 11 46 3 61 -26z"/>
</g>
</svg>
